<svg xmlns="http://www.w3.org/2000/svg" xmlns:xlink="http://www.w3.org/1999/xlink" width="500" zoomAndPan="magnify" viewBox="0 0 375 374.999991" height="500" preserveAspectRatio="xMidYMid meet" version="1.0"><defs><g/><clipPath id="ff37e7be98"><path d="M 37.5 37.5 L 337.5 37.5 L 337.5 337.5 L 37.5 337.5 Z M 37.5 37.5 " clip-rule="nonzero"/></clipPath><clipPath id="66a8d5bd18"><path d="M 187.5 37.5 C 104.65625 37.5 37.5 104.65625 37.5 187.5 C 37.5 270.34375 104.65625 337.5 187.5 337.5 C 270.34375 337.5 337.5 270.34375 337.5 187.5 C 337.5 104.65625 270.34375 37.5 187.5 37.5 Z M 187.5 37.5 " clip-rule="nonzero"/></clipPath><clipPath id="525a7d0fe4"><path d="M 283.59375 213.894531 L 337.5 213.894531 L 337.5 239.515625 L 283.59375 239.515625 Z M 283.59375 213.894531 " clip-rule="nonzero"/></clipPath></defs><g clip-path="url(#ff37e7be98)"><g clip-path="url(#66a8d5bd18)"><path fill="#272727" d="M 37.5 37.5 L 337.5 37.5 L 337.5 337.5 L 37.5 337.5 Z M 37.5 37.5 " fill-opacity="1" fill-rule="nonzero"/></g></g><g fill="#ffffff" fill-opacity="1"><g transform="translate(84.990269, 239.400325)"><g><path d="M 73.4375 -80.015625 L 73.4375 0 L 38.90625 0 L 38.90625 -80.015625 L 3.59375 -80.015625 L 3.59375 -107.515625 L 108.609375 -107.515625 L 108.609375 -80.015625 Z M 73.4375 -80.015625 "/></g></g></g><path stroke-linecap="butt" transform="matrix(0.494289, 0, 0, 0.494289, 119.961465, 78.262113)" fill="none" stroke-linejoin="miter" d="M 230.830812 273.822124 L 334.175276 273.822124 L 334.175276 325.996182 L 123.313687 325.996182 L 123.313687 303.536523 L 224.192489 160.67823 L 130.955661 160.67823 L 130.955661 108.49627 L 331.709614 108.49627 L 331.709614 130.955929 Z M 230.830812 273.822124 " stroke="#272727" stroke-width="45.050236" stroke-opacity="1" stroke-miterlimit="4"/><g fill="#ffffff" fill-opacity="1"><g transform="translate(177.175415, 239.400325)"><g><path d="M 56.875 -25.78125 L 107.984375 -25.78125 L 107.984375 0 L 3.75 0 L 3.75 -11.09375 L 53.59375 -81.734375 L 7.5 -81.734375 L 7.5 -107.515625 L 106.734375 -107.515625 L 106.734375 -96.421875 Z M 56.875 -25.78125 "/></g></g></g><g clip-path="url(#525a7d0fe4)"><path fill="#ffffff" d="M 283.59375 213.894531 L 337.539062 213.894531 L 337.539062 239.515625 L 283.59375 239.515625 Z M 283.59375 213.894531 " fill-opacity="1" fill-rule="nonzero"/></g><g fill="#ffffff" fill-opacity="1"><g transform="translate(156.771748, 266.70675)"><g><path d="M 0.125 -10.90625 L 0.125 -13.625 L 9.71875 -13.625 L 9.71875 -10.90625 L 6.46875 -10.90625 L 6.46875 0 L 3.375 0 L 3.375 -10.90625 Z M 0.125 -10.90625 "/></g></g></g><g fill="#ffffff" fill-opacity="1"><g transform="translate(167.68674, 266.70675)"><g><path d="M 8.78125 -13.625 L 8.78125 -10.90625 L 4.09375 -10.90625 L 4.09375 -8.1875 L 8.59375 -8.1875 L 8.59375 -5.46875 L 4.09375 -5.46875 L 4.09375 -2.71875 L 8.78125 -2.71875 L 8.78125 0 L 0.984375 0 L 0.984375 -13.625 Z M 8.78125 -13.625 "/></g></g></g><g fill="#ffffff" fill-opacity="1"><g transform="translate(178.337546, 266.70675)"><g><path d="M 8.234375 -2.8125 C 8.710938 -2.8125 9.175781 -2.878906 9.625 -3.015625 C 10.070312 -3.160156 10.398438 -3.300781 10.609375 -3.4375 L 10.921875 -3.65625 L 12.234375 -1 C 12.191406 -0.96875 12.128906 -0.925781 12.046875 -0.875 C 11.972656 -0.820312 11.796875 -0.71875 11.515625 -0.5625 C 11.234375 -0.414062 10.929688 -0.285156 10.609375 -0.171875 C 10.296875 -0.0664062 9.878906 0.0234375 9.359375 0.109375 C 8.847656 0.203125 8.316406 0.25 7.765625 0.25 C 6.492188 0.25 5.289062 -0.0625 4.15625 -0.6875 C 3.019531 -1.3125 2.101562 -2.164062 1.40625 -3.25 C 0.71875 -4.34375 0.375 -5.519531 0.375 -6.78125 C 0.375 -7.738281 0.578125 -8.660156 0.984375 -9.546875 C 1.398438 -10.429688 1.945312 -11.1875 2.625 -11.8125 C 3.300781 -12.4375 4.085938 -12.9375 4.984375 -13.3125 C 5.890625 -13.6875 6.816406 -13.875 7.765625 -13.875 C 8.640625 -13.875 9.445312 -13.769531 10.1875 -13.5625 C 10.9375 -13.351562 11.46875 -13.144531 11.78125 -12.9375 L 12.234375 -12.625 L 10.921875 -9.96875 C 10.835938 -10.039062 10.71875 -10.125 10.5625 -10.21875 C 10.414062 -10.3125 10.109375 -10.429688 9.640625 -10.578125 C 9.179688 -10.734375 8.710938 -10.8125 8.234375 -10.8125 C 7.492188 -10.8125 6.820312 -10.691406 6.21875 -10.453125 C 5.625 -10.210938 5.15625 -9.894531 4.8125 -9.5 C 4.46875 -9.101562 4.203125 -8.675781 4.015625 -8.21875 C 3.835938 -7.757812 3.75 -7.296875 3.75 -6.828125 C 3.75 -5.785156 4.132812 -4.851562 4.90625 -4.03125 C 5.6875 -3.21875 6.796875 -2.8125 8.234375 -2.8125 Z M 8.234375 -2.8125 "/></g></g></g><g fill="#ffffff" fill-opacity="1"><g transform="translate(191.844877, 266.70675)"><g><path d="M 4.09375 -5.46875 L 4.09375 0 L 0.984375 0 L 0.984375 -13.625 L 4.09375 -13.625 L 4.09375 -8.1875 L 8.484375 -8.1875 L 8.484375 -13.625 L 11.59375 -13.625 L 11.59375 0 L 8.484375 0 L 8.484375 -5.46875 Z M 4.09375 -5.46875 "/></g></g></g><g fill="#ffffff" fill-opacity="1"><g transform="translate(205.500808, 266.70675)"><g><path d="M 12.4375 -13.625 L 5.6875 -2.71875 L 11.984375 -2.71875 L 11.984375 0 L 0.265625 0 L 7 -10.90625 L 1.21875 -10.90625 L 1.21875 -13.625 Z M 12.4375 -13.625 "/></g></g></g></svg>