<svg version="1.2" xmlns="http://www.w3.org/2000/svg" viewBox="0 0 375 120" width="375" height="120">
	<title>Grey and White Simple Modern Monoline Beauty and Fashion Initials Logo-svg</title>
	<style>
		.s0 { fill: #ffffff } 
	</style>
	<g>
		<g>
			<g>
				<path class="s0" d="m2.8 13.4h82.1v13.1h-34.4v88.3h-13.2v-88.3h-34.5z"/>
			</g>
		</g>
	</g>
	<g>
		<g>
			<g>
				<path class="s0" d="m75 13.4h64.8v13.1h-51.9v30.9h39.7v13.1h-39.7v31.3h51.9v13h-64.8z"/>
			</g>
		</g>
	</g>
	<g>
		<g>
			<g>
				<path class="s0" d="m220.3 96.4q-7.3 9.3-17.8 14.3-10.4 5-22.2 5-13.9 0-25.6-7-11.8-6.9-18.7-18.9-6.8-11.8-6.8-25.8 0-14 6.8-26 6.9-12 18.7-18.9 11.7-6.8 25.6-6.8 10.9 0 20.8 4.3 10 4.6 17.2 12.6l-9.7 8.6q-5.4-5.9-12.9-9.3-7.5-3.3-15.4-3.3-10.3 0-19 5.1-8.9 5.3-14.1 14.2-5.1 9-5.1 19.5 0 10.4 5.1 19.3 5.2 9 14.1 14.2 8.7 5.3 19 5.3 8.7 0 16.6-3.9 7.8-3.8 13.3-10.6z"/>
			</g>
		</g>
	</g>
	<g>
		<g>
			<g>
				<path class="s0" d="m223.1 70.5v44.3h-13.3v-101.4h13.3v44h49.5v-44h13.1v101.4h-12.9l-0.2-44.3z"/>
			</g>
		</g>
	</g>
	<g>
		<g>
			<g>
				<path class="s0" d="m326 26.5h-44.2v-13.1h65.7l-45.9 88.4h44.1v13h-65.6z"/>
			</g>
		</g>
	</g>
	<g>
		<g>
			<g>
			</g>
		</g>
	</g>
	<g>
		<g>
			<g>
				<path class="s0" d="m363 114.8q-2.7 0-4.6-2.1-1.8-1.8-1.8-4.5 0-2.6 2-4.5 1.9-1.9 4.4-1.9 2.6 0 4.6 1.9 1.9 2 1.9 4.5 0 2.7-1.9 4.5-2 2.1-4.6 2.1z"/>
			</g>
		</g>
	</g>
</svg>